<svg width="25" height="24" viewBox="0 0 25 24" fill="none" xmlns="http://www.w3.org/2000/svg">
<path d="M8.44452 14.7189H8.44546C8.44624 14.7189 8.44702 14.7188 8.44776 14.7188H19.0711C19.1984 14.7187 19.3223 14.6773 19.4239 14.6006C19.5256 14.5239 19.5995 14.4162 19.6345 14.2938L21.9782 6.09067C22.0031 6.00348 22.0075 5.91171 21.9909 5.82256C21.9743 5.73341 21.9373 5.64933 21.8827 5.57692C21.8281 5.5045 21.7574 5.44576 21.6762 5.4053C21.595 5.36484 21.5056 5.34377 21.4149 5.34375H7.09323L6.6744 3.45883C6.64546 3.32868 6.57301 3.2123 6.469 3.12888C6.365 3.04546 6.23566 3 6.10233 3H2.5867C2.26307 3 2.00076 3.26231 2.00076 3.58594C2.00076 3.90957 2.26307 4.17188 2.5867 4.17188H5.63237C5.70651 4.50586 7.63675 13.1921 7.74784 13.6918C7.12515 13.9625 6.68827 14.5835 6.68827 15.3047C6.68827 16.2739 7.47686 17.0625 8.44609 17.0625H19.0711C19.3947 17.0625 19.657 16.8002 19.657 16.4766C19.657 16.153 19.3947 15.8906 19.0711 15.8906H8.44609C8.12304 15.8906 7.86015 15.6278 7.86015 15.3047C7.86015 14.9821 8.12214 14.7197 8.44452 14.7189ZM20.6381 6.51563L18.6291 13.5469H8.91609L7.35358 6.51563H20.6381ZM7.86015 18.8203C7.86015 19.7896 8.64874 20.5782 9.61796 20.5782C10.5872 20.5782 11.3758 19.7896 11.3758 18.8203C11.3758 17.8511 10.5872 17.0625 9.61796 17.0625C8.64874 17.0625 7.86015 17.8511 7.86015 18.8203ZM9.61796 18.2344C9.94101 18.2344 10.2039 18.4973 10.2039 18.8203C10.2039 19.1434 9.94101 19.4063 9.61796 19.4063C9.29491 19.4063 9.03202 19.1434 9.03202 18.8203C9.03202 18.4973 9.29491 18.2344 9.61796 18.2344ZM16.1414 18.8203C16.1414 19.7896 16.93 20.5782 17.8992 20.5782C18.8684 20.5782 19.657 19.7896 19.657 18.8203C19.657 17.8511 18.8684 17.0625 17.8992 17.0625C16.93 17.0625 16.1414 17.8511 16.1414 18.8203ZM17.8992 18.2344C18.2223 18.2344 18.4852 18.4973 18.4852 18.8203C18.4852 19.1434 18.2223 19.4063 17.8992 19.4063C17.5762 19.4063 17.3133 19.1434 17.3133 18.8203C17.3133 18.4973 17.5762 18.2344 17.8992 18.2344Z" fill="#707070"/>
</svg>
