<svg width="25" height="24" viewBox="0 0 25 24" fill="none" xmlns="http://www.w3.org/2000/svg">
<path d="M5.10001 2.7V2.6H4.60001C4.23739 2.6 3.91663 2.77627 3.69645 2.99645C3.47628 3.21662 3.30001 3.53738 3.30001 3.9V9.2C3.30001 9.56262 3.47628 9.88338 3.69645 10.1036C3.91663 10.3237 4.23739 10.5 4.60001 10.5H9.80001C10.6162 10.5 11.1 9.8343 11.1 9.2V4C11.1 3.63738 10.9237 3.31662 10.7036 3.09645C10.4834 2.87627 10.1626 2.7 9.80001 2.7H5.10001ZM9.80001 10.7H4.60001C3.77615 10.7 3.10001 10.0239 3.10001 9.2V4C3.10001 3.17614 3.77615 2.5 4.60001 2.5H9.80001C10.6239 2.5 11.3 3.17614 11.3 4V9.2C11.3 10.0239 10.6239 10.7 9.80001 10.7Z" fill="#707070" stroke="#707070"/>
<path d="M9.80001 21.4998H4.60001C3.77615 21.4998 3.10001 20.8237 3.10001 19.9998V14.7998C3.10001 13.9759 3.77615 13.2998 4.60001 13.2998H9.80001C10.6239 13.2998 11.3 13.9759 11.3 14.7998V19.9998C11.3 20.8237 10.6239 21.4998 9.80001 21.4998ZM4.60001 13.3998C4.23739 13.3998 3.91663 13.5761 3.69645 13.7963C3.47628 14.0164 3.30001 14.3372 3.30001 14.6998V19.8998C3.30001 20.2624 3.47628 20.5832 3.69645 20.8034C3.91663 21.0235 4.23739 21.1998 4.60001 21.1998H9.80001C10.1626 21.1998 10.4834 21.0235 10.7036 20.8034C10.9237 20.5832 11.1 20.2624 11.1 19.8998V14.6998C11.1 14.3372 10.9237 14.0164 10.7036 13.7963C10.4834 13.5761 10.1626 13.3998 9.80001 13.3998H4.60001Z" fill="#707070" stroke="#707070"/>
<path d="M15.9 2.7V2.6H15.4C15.0374 2.6 14.7166 2.77627 14.4964 2.99645C14.2763 3.21662 14.1 3.53738 14.1 3.9V9.2C14.1 9.56262 14.2763 9.88338 14.4964 10.1036C14.7166 10.3237 15.0374 10.5 15.4 10.5H20.6C20.9626 10.5 21.2834 10.3237 21.5035 10.1036C21.7237 9.88338 21.9 9.56262 21.9 9.2V4C21.9 3.63738 21.7237 3.31662 21.5035 3.09645C21.2834 2.87627 20.9626 2.7 20.6 2.7H15.9ZM20.6 10.7H15.4C14.5761 10.7 13.9 10.0239 13.9 9.2V4C13.9 3.17614 14.5761 2.5 15.4 2.5H20.6C21.4239 2.5 22.1 3.17614 22.1 4V9.2C22.1 10.0239 21.4239 10.7 20.6 10.7Z" fill="#707070" stroke="#707070"/>
<path d="M20.6 21.4998H15.4C14.5761 21.4998 13.9 20.8237 13.9 19.9998V14.7998C13.9 13.9759 14.5761 13.2998 15.4 13.2998H20.6C21.4239 13.2998 22.1 13.9759 22.1 14.7998V19.9998C22.1 20.8237 21.4239 21.4998 20.6 21.4998ZM15.4 13.3998C15.0374 13.3998 14.7166 13.5761 14.4964 13.7963C14.2763 14.0164 14.1 14.3372 14.1 14.6998V19.8998C14.1 20.2624 14.2763 20.5832 14.4964 20.8034C14.7166 21.0235 15.0374 21.1998 15.4 21.1998H20.6C20.9626 21.1998 21.2834 21.0235 21.5035 20.8034C21.7237 20.5832 21.9 20.2624 21.9 19.8998V14.6998C21.9 14.3372 21.7237 14.0164 21.5035 13.7963C21.2834 13.5761 20.9626 13.3998 20.6 13.3998H15.4Z" fill="#707070" stroke="#707070"/>
</svg>
