<svg width="25" height="24" viewBox="0 0 25 24" fill="none" xmlns="http://www.w3.org/2000/svg">
<path d="M15.1628 9.76313L15.1628 9.76308C15.9774 8.94853 16.3836 7.96807 16.3836 6.81688C16.3836 5.66617 15.9775 4.68559 15.1627 3.87066C15.1627 3.87062 15.1627 3.87058 15.1626 3.87055M15.1628 9.76313L8.81066 10.2229C7.87406 9.28647 7.39922 8.14054 7.39922 6.81688C7.39922 5.49349 7.8741 4.34756 8.8105 3.41112C9.7469 2.47468 10.8927 2 12.2164 2C13.5398 2 14.6857 2.47468 15.6223 3.41097L15.1626 3.87055M15.1628 9.76313C14.3482 10.5778 13.3675 10.984 12.2164 10.984C11.0657 10.984 10.0851 10.5778 9.27024 9.76325L15.1628 9.76313ZM15.1626 3.87055C14.3479 3.05611 13.3672 2.65 12.2164 2.65C11.0652 2.65 10.0847 3.05615 9.27013 3.87073C8.45552 4.68538 8.04922 5.66602 8.04922 6.81688C8.04922 7.96801 8.45548 8.94861 9.2702 9.76321L15.1626 3.87055ZM19.5532 15.0428L19.5532 15.0426C19.4381 14.6831 19.2808 14.3255 19.0849 13.9809C18.8871 13.6328 18.6598 13.3389 18.4131 13.1029L18.4129 13.1028C18.1686 12.869 17.8613 12.6731 17.4913 12.5265C17.1365 12.3862 16.7327 12.3109 16.2865 12.3109C16.2865 12.3109 16.2864 12.3109 16.2863 12.3109C16.2842 12.3107 16.2689 12.3095 16.2153 12.3322C16.1463 12.3615 16.0398 12.4194 15.8582 12.5376C15.5855 12.7152 15.312 12.8916 15.0377 13.0666L15.0373 13.0669C14.7121 13.2741 14.3008 13.4509 13.8325 13.6022C13.3434 13.7604 12.8418 13.8423 12.3421 13.8423C11.8423 13.8423 11.3408 13.7604 10.8514 13.6022L19.5532 15.0428ZM19.5532 15.0428C19.6686 15.4032 19.7666 15.8025 19.8433 16.23C19.9203 16.6596 19.9715 17.0612 19.9967 17.4239L19.9967 17.4244M19.5532 15.0428L19.9967 17.4244M19.9967 17.4244C20.0223 17.7892 20.0354 18.1715 20.0356 18.5602L19.9967 17.4244ZM9.64713 13.0669L9.64671 13.0666C9.34197 12.8719 9.06571 12.6938 8.82555 12.5373L8.82545 12.5373C8.64417 12.4191 8.53783 12.3612 8.46897 12.332C8.41531 12.3093 8.39998 12.3105 8.39797 12.3107C8.39787 12.3107 8.39781 12.3107 8.39777 12.3107C7.95128 12.3107 7.54765 12.3862 7.19292 12.5267L7.19279 12.5268C6.82331 12.6731 6.51598 12.8688 6.27129 13.103C6.02439 13.3394 5.7971 13.6332 5.5998 13.9806L5.59978 13.9806C5.40398 14.3253 5.24657 14.683 5.13134 15.0429C5.01605 15.4034 4.91811 15.8026 4.84141 16.23L9.64713 13.0669ZM9.64713 13.0669C9.97219 13.2742 10.3836 13.451 10.8513 13.6022L9.64713 13.0669ZM4.6496 18.56L4.6496 18.5604C4.6496 19.4564 4.92875 20.1207 5.43402 20.602C5.93969 21.0832 6.62476 21.35 7.52754 21.35H17.1576C18.0604 21.35 18.7452 21.0834 19.251 20.602L19.251 20.602C19.7562 20.1213 20.0355 19.4571 20.0356 18.5605L4.6496 18.56ZM4.6496 18.56C4.64935 18.181 4.66217 17.8021 4.68803 17.424M4.6496 18.56L4.68803 17.424M4.68803 17.424C4.71319 17.0604 4.76447 16.6588 4.84141 16.23L4.68803 17.424Z" stroke="#707070" stroke-width="1.3"/>
</svg>
