<svg width="25" height="24" viewBox="0 0 25 24" fill="none" xmlns="http://www.w3.org/2000/svg">
<path d="M14.8923 11.2544H11.1763C10.8047 11.2544 10.4331 11.5331 10.4331 11.9976C10.4331 12.3692 10.7118 12.6479 11.1763 12.6479H14.8923C15.2639 12.6479 15.6355 12.3692 15.6355 11.9047C15.5426 11.5331 15.2639 11.2544 14.8923 11.2544Z" fill="#707070"/>
<path d="M16.7503 7.35248H9.31833C8.85383 7.35248 8.57513 7.63118 8.57513 8.09567C8.57513 8.46727 8.85383 8.83886 9.31833 8.83886H16.7503C17.1219 8.83886 17.4935 8.56017 17.4935 8.09567C17.4006 7.63118 17.1219 7.35248 16.7503 7.35248Z" fill="#707070"/>
<path d="M22.8816 6.70235C22.7887 5.86626 22.6958 5.12307 22.4171 4.47277C21.9526 3.45088 21.1165 2.61479 20.0946 2.05739C19.4443 1.6858 18.794 1.5929 17.958 1.5C17.1219 1.5 16.1 1.5 14.8923 1.5H11.1763C9.87573 1.5 8.85384 1.5 8.01774 1.5929C7.18165 1.6858 6.53136 1.7787 5.88106 2.15029C4.85917 2.61479 4.11598 3.54378 3.55858 4.56567C3.27989 5.21597 3.09409 5.86626 3.09409 6.70235C3.00119 7.63134 3.00119 8.65323 3.00119 10.0467V14.1343C3.00119 16.5497 4.85917 18.5005 7.18165 18.5005H7.73905C7.83194 18.5005 7.92484 18.5934 8.01774 18.6863C8.11064 18.7792 8.11064 18.965 8.01774 19.0579C7.73905 19.894 8.01774 20.6372 8.57514 21.1017C9.13253 21.5662 9.96863 21.6591 10.6189 21.1946L13.0343 19.3366C13.6846 18.8721 14.4278 18.5934 15.2639 18.5934C15.2639 18.5934 15.2639 18.5934 15.3568 18.5934H15.8213C17.3077 18.5934 18.2366 18.5934 18.9798 18.4076C20.7449 17.8502 22.0455 16.4568 22.6029 14.5988C22.7887 13.8556 22.7887 12.8337 22.7887 11.2544V10.0467C22.9745 8.65323 22.9745 7.63134 22.8816 6.70235ZM21.3952 14.1343C21.0236 15.5278 20.0017 16.5497 18.7011 16.9213C18.1437 17.1071 17.4935 17.1071 15.9142 17.1071H15.4497H15.3568C14.242 17.1071 13.2201 17.4787 12.2911 18.1289C12.2911 18.1289 12.2911 18.1289 12.1982 18.1289L9.78283 19.9869C9.78283 20.0798 9.68993 20.0798 9.68993 20.0798C9.59703 20.0798 9.50413 20.0798 9.50413 19.9869C9.41123 19.894 9.31833 19.7082 9.41123 19.5224C9.87573 18.4076 9.03963 17.1071 7.83194 17.1071H7.18165C5.69527 17.1071 4.39468 15.8065 4.39468 14.1343V10.0467C4.39468 8.65323 4.39468 7.63134 4.48758 6.88815C4.48758 6.05206 4.67337 5.58756 4.85917 5.12307C5.23077 4.37987 5.78816 3.72958 6.53136 3.35798C6.90295 3.17218 7.36745 3.07929 8.11064 2.98639C8.85384 2.89349 9.78283 2.89349 11.0834 2.89349H14.7994C16.1 2.89349 17.029 2.89349 17.7722 2.98639C18.5153 3.07929 18.9798 3.17218 19.3514 3.35798C20.0946 3.72958 20.7449 4.37987 21.1165 5.21597C21.3023 5.58756 21.3952 6.14496 21.4881 6.88815C21.581 7.63134 21.581 8.65323 21.581 10.0467V11.1615C21.581 12.8337 21.581 13.5769 21.3952 14.1343Z" fill="#707070"/>
</svg>
