<svg width="24" height="24" viewBox="0 0 24 24" fill="none" xmlns="http://www.w3.org/2000/svg">
<path d="M21.625 13.3C21.225 13.7 20.825 13.8 20.325 13.8H20.025V19.8C20.025 21 19.025 21.9 17.825 21.9H14.625C14.325 21.9 14.025 21.6 14.025 21.3V16.6C14.025 16 13.625 15.6 13.025 15.6H11.125C10.625 15.6 10.125 16 10.125 16.6V21.3C10.125 21.6 9.825 21.9 9.525 21.9H6.325C5.125 21.9 4.125 20.9 4.125 19.8V13.8H3.725C3.225 13.8 2.825 13.6 2.525 13.3C1.825 12.6 1.825 11.4 2.525 10.7L10.725 2.6C11.125 2.2 11.625 2 12.125 2C12.625 2 13.025 2.2 13.425 2.5L21.625 10.7C22.325 11.4 22.325 12.6 21.625 13.3Z" fill="#F97316"/>
</svg>
