<svg width="46" height="16" viewBox="0 0 46 16" fill="none" xmlns="http://www.w3.org/2000/svg">
<g id="Group 1445">
<path id="Union" fill-rule="evenodd" clip-rule="evenodd" d="M1.52344 0H43.8203H43.8391H45.3316V1.23077H43.8391V2.46094H45.3316V3.69171H43.8391V4.92188H45.3316V6.15264H43.8391V7.39062H45.3316V8.62139H43.8391V9.84375H45.3316V11.0745H43.8391V12.3125H45.3316V13.5433H43.8391V14.7656H45.3316V15.9964H43.8391V16H1.52344V0ZM0 14.7656H1.51127V15.9964H0V14.7656ZM0 12.3125H1.51127V13.5433H0V12.3125ZM0 9.84375H1.51127V11.0745H0V9.84375ZM0 7.39062H1.51127V8.62139H0V7.39062ZM0 4.92188H1.51127V6.15264H0V4.92188ZM0 2.46094H1.51127V3.69171H0V2.46094ZM0 0H1.51127V1.23077H0V0Z" fill="#F97316"/>
</g>
</svg>
